<svg width="25" height="25" viewBox="0 0 25 25" fill="none" xmlns="http://www.w3.org/2000/svg">
<path fill-rule="evenodd" clip-rule="evenodd" d="M17.4249 0.952179C18.9378 1.57639 20.2708 2.47567 21.3923 3.59712C22.5138 4.71858 23.413 6.05163 24.0372 7.56454C24.6509 9.06686 24.9894 10.7279 24.9894 12.4947C24.9894 14.2615 24.6509 15.9226 24.0372 17.4249C23.413 18.9378 22.5138 20.2708 21.3923 21.3923C20.2708 22.5138 18.9378 23.413 17.4249 24.0372C15.9226 24.6509 14.2615 24.9894 12.4947 24.9894C10.7279 24.9894 9.06686 24.6509 7.56454 24.0372C6.05163 23.413 4.71858 22.5138 3.59712 21.3923C2.47567 20.2708 1.57639 18.9378 0.952179 17.4249C0.338553 15.9226 0 14.2615 0 12.4947C0 10.7279 0.338553 9.06686 0.952179 7.56454C1.57639 6.05163 2.47567 4.71858 3.59712 3.59712C4.71858 2.47567 6.05163 1.57639 7.56454 0.952179C9.06686 0.338553 10.7279 0 12.4947 0C14.2615 0 15.9226 0.338553 17.4249 0.952179ZM17.1286 23.2861C18.5252 22.7148 19.7842 21.8684 20.8316 20.8316C21.8684 19.7842 22.7148 18.5252 23.2861 17.1286C23.868 15.711 24.1854 14.1557 24.1854 12.4947C24.1854 10.8337 23.868 9.27846 23.2861 7.86077C22.7148 6.46424 21.8684 5.20525 20.8316 4.15785C19.7842 3.12103 18.5252 2.27465 17.1286 1.70334C15.711 1.12146 14.1557 0.804063 12.4947 0.804063C10.8337 0.804063 9.27846 1.12146 7.86077 1.70334C6.46424 2.27465 5.20525 3.12103 4.15785 4.15785C3.12103 5.20525 2.27465 6.46424 1.70334 7.86077C1.12146 9.27846 0.804063 10.8337 0.804063 12.4947C0.804063 14.1557 1.12146 15.711 1.70334 17.1286C2.27465 18.5252 3.12103 19.7842 4.15785 20.8316C5.20525 21.8684 6.46424 22.7148 7.86077 23.2861C9.27846 23.868 10.8337 24.1854 12.4947 24.1854C14.1557 24.1854 15.711 23.868 17.1286 23.2861ZM7.72323 10.3999C7.46932 10.3999 7.22598 10.6432 7.22598 10.8972V14.9175C7.22598 15.1608 7.46932 15.4147 7.72323 15.4147H9.74397C9.99788 15.4147 10.2518 15.1608 10.2518 14.9175V10.8972C10.2518 10.6432 9.99788 10.3999 9.74397 10.3999H7.72323ZM10.9712 11.1088C10.9712 12.3466 10.9818 13.5844 10.9924 14.8117C11.6377 15.0233 12.2196 15.6369 12.738 15.6792C13.8172 15.711 14.6953 15.7321 15.785 15.7533C16.3457 15.6263 16.314 15.0444 16.2188 14.653C16.642 14.5472 16.6949 14.4096 16.8007 14.251C16.9382 14.0076 16.9488 13.6267 16.8536 13.3623C17.2768 13.2353 17.2768 12.5793 17.1286 12.2091C17.6047 11.7964 17.4566 10.9289 16.8113 10.8443C15.986 10.8019 14.6212 10.8548 14.3567 10.7067C14.2933 10.3153 14.4308 9.9873 14.5154 9.59585C14.6107 9.22556 14.7165 8.2099 14.5683 7.97715C13.9865 7.20482 13.1083 7.73381 13.0237 8.06179C12.9708 8.28396 13.0766 8.66483 13.0237 8.83411C12.7909 9.4689 12.3149 10.019 11.7647 10.548C11.5002 10.7385 11.1511 10.8019 10.9712 11.1088ZM17.9221 5.86119C18.0597 5.86119 18.1866 5.88235 18.3242 5.91409C18.4511 5.94583 18.5781 5.98815 18.6945 6.04105C18.9378 6.15743 19.1494 6.30554 19.3398 6.49598C19.5303 6.68642 19.689 6.90859 19.8053 7.15193C19.8582 7.2683 19.9005 7.39526 19.9323 7.52222C19.964 7.64917 19.9852 7.78671 19.9852 7.91367V16.1871C19.9852 16.314 19.964 16.4515 19.9323 16.5785C19.9005 16.7055 19.8582 16.8324 19.8053 16.9594C19.689 17.1921 19.5303 17.4143 19.3398 17.6047C19.1494 17.7952 18.9378 17.9539 18.6945 18.0597C18.5781 18.1126 18.4511 18.1655 18.3242 18.1866C18.1866 18.2184 18.0597 18.2395 17.9221 18.2395H16.3881C16.3986 18.3242 16.4198 18.4194 16.4515 18.504C16.4939 18.6733 16.5679 18.8426 16.6631 19.0013C16.7584 19.16 16.8642 19.3081 16.9911 19.435C17.1181 19.562 17.2662 19.6784 17.4143 19.7736C17.4566 19.8053 17.4884 19.8265 17.5095 19.8688C17.5413 19.9111 17.5518 19.9534 17.5518 20.0063C17.5518 20.0592 17.5413 20.1016 17.5095 20.1439C17.4884 20.1862 17.4566 20.2179 17.4143 20.2391C17.372 20.2603 17.3297 20.2708 17.2768 20.2708C17.2556 20.2814 17.2344 20.2814 17.2133 20.2814C16.843 20.2814 16.4515 20.2285 16.0707 20.1439C15.6898 20.0487 15.3195 19.9111 14.9704 19.7313C14.6212 19.5408 14.3039 19.3187 14.0394 19.0436C13.8066 18.8003 13.6267 18.5358 13.4892 18.2395H7.06729C6.92975 18.2395 6.80279 18.2184 6.66526 18.1866C6.5383 18.1655 6.41134 18.1126 6.29496 18.0597C6.05163 17.9539 5.84003 17.7952 5.6496 17.6047C5.45916 17.4143 5.30047 17.1921 5.18409 16.9594C5.13119 16.8324 5.08887 16.7055 5.05713 16.5785C5.02539 16.4515 5.00423 16.314 5.00423 16.1871V7.91367C5.00423 7.78671 5.02539 7.64917 5.05713 7.52222C5.08887 7.39526 5.13119 7.2683 5.18409 7.15193C5.30047 6.90859 5.45916 6.68642 5.6496 6.49598C5.84003 6.30554 6.05163 6.15743 6.29496 6.04105C6.41134 5.98815 6.5383 5.94583 6.66526 5.91409C6.80279 5.88235 6.92975 5.86119 7.06729 5.86119H17.9221Z" fill="white"/>
</svg>
