<svg width="25" height="25" viewBox="0 0 25 25" fill="none" xmlns="http://www.w3.org/2000/svg">
<path d="M11.25 15H8.75C8.75 12.0163 9.93526 9.15483 12.045 7.04505C14.1548 4.93526 17.0163 3.75 20 3.75V6.25C15.1625 6.25 11.25 10.1625 11.25 15ZM20 11.25V8.75C16.55 8.75 13.75 11.55 13.75 15H16.25C16.25 12.925 17.925 11.25 20 11.25ZM6.25 2.5C6.25 1.1125 5.1375 0 3.75 0C2.3625 0 1.25 1.1125 1.25 2.5C1.25 3.8875 2.3625 5 3.75 5C5.1375 5 6.25 3.8875 6.25 2.5ZM11.8125 3.125H9.3125C9.16744 3.99819 8.71718 4.79155 8.0419 5.36382C7.36662 5.93609 6.51015 6.25013 5.625 6.25H1.875C0.8375 6.25 0 7.0875 0 8.125V11.25H7.5V8.425C8.65816 8.05976 9.68388 7.36308 10.4503 6.42113C11.2168 5.47917 11.6904 4.33323 11.8125 3.125V3.125ZM21.25 18.75C22.6375 18.75 23.75 17.6375 23.75 16.25C23.75 14.8625 22.6375 13.75 21.25 13.75C19.8625 13.75 18.75 14.8625 18.75 16.25C18.75 17.6375 19.8625 18.75 21.25 18.75ZM23.125 20H19.375C18.4898 20.0001 17.6334 19.6861 16.9581 19.1138C16.2828 18.5416 15.8326 17.7482 15.6875 16.875H13.1875C13.3096 18.0832 13.7832 19.2292 14.5497 20.1711C15.3161 21.1131 16.3418 21.8098 17.5 22.175V25H25V21.875C25 20.8375 24.1625 20 23.125 20Z" fill="white"/>
</svg>
