<svg width="32" height="27" viewBox="0 0 32 27" fill="none" xmlns="http://www.w3.org/2000/svg">
<path d="M1.11463 1.12654C0.72028 1.52661 0.5 2.06771 0.5 2.63043C0.5 3.19316 0.72028 3.73426 1.11463 4.13433C1.50923 4.53464 2.04595 4.76087 2.60714 4.76087H29.3929C29.6706 4.76087 29.9454 4.70537 30.2016 4.59772C30.4578 4.49007 30.69 4.33249 30.8854 4.13433C31.0807 3.93618 31.2352 3.70133 31.3406 3.44338C31.4459 3.18544 31.5 2.90922 31.5 2.63043C31.5 2.35165 31.4459 2.07543 31.3406 1.81749C31.2352 1.55954 31.0807 1.32469 30.8854 1.12654C30.69 0.92838 30.4578 0.770799 30.2016 0.663154C29.9454 0.555503 29.6706 0.5 29.3929 0.5H2.60714C2.04595 0.5 1.50923 0.72623 1.11463 1.12654ZM1.11463 11.9961C0.72028 12.3962 0.5 12.9373 0.5 13.5C0.5 14.0627 0.72028 14.6038 1.11463 15.0039C1.50923 15.4042 2.04595 15.6304 2.60714 15.6304H29.3929C29.954 15.6304 30.4908 15.4042 30.8854 15.0039C31.2797 14.6038 31.5 14.0627 31.5 13.5C31.5 12.9373 31.2797 12.3962 30.8854 11.9961C30.4908 11.5958 29.954 11.3696 29.3929 11.3696H2.60714C2.04595 11.3696 1.50923 11.5958 1.11463 11.9961ZM2.60714 22.2391C2.04595 22.2391 1.50923 22.4654 1.11463 22.8657C0.72028 23.2657 0.5 23.8068 0.5 24.3696C0.5 24.9323 0.72028 25.4734 1.11463 25.8735C1.50923 26.2738 2.04595 26.5 2.60714 26.5H29.3929C29.954 26.5 30.4908 26.2738 30.8854 25.8735C31.2797 25.4734 31.5 24.9323 31.5 24.3696C31.5 23.8068 31.2797 23.2657 30.8854 22.8657C30.4908 22.4654 29.954 22.2391 29.3929 22.2391H2.60714Z" fill="#EC6C54" stroke="#EC6C54"/>
</svg>
