<svg width="50" height="50" viewBox="0 0 50 50" fill="none" xmlns="http://www.w3.org/2000/svg">
<path d="M49.1721 7.00713L42.8984 0.793321C42.3592 0.284085 41.6427 0 40.8976 0C40.1526 0 39.4361 0.284085 38.8968 0.793321L33.3183 6.33537H3.39118C2.49178 6.33537 1.62922 6.68925 0.993253 7.31915C0.357284 7.94905 0 8.80337 0 9.69419V46.6412C0 47.532 0.357284 48.3863 0.993253 49.0162C1.62922 49.6461 2.49178 50 3.39118 50H40.6942C41.5936 50 42.4561 49.6461 43.0921 49.0162C43.7281 48.3863 44.0853 47.532 44.0853 46.6412V16.0088L49.1721 10.9705C49.7022 10.4447 50 9.73195 50 8.98884C50 8.24572 49.7022 7.53298 49.1721 7.00713V7.00713ZM25.1456 30.0654L18.0411 31.6273L19.7367 24.6577L35.9296 8.58578L41.4063 14.0103L25.1456 30.0654ZM43.2375 12.0957L37.7608 6.67125L40.8976 3.56435L46.3744 8.98884L43.2375 12.0957Z" fill="#80FF00"/>
</svg>
