<svg width="21" height="21" viewBox="0 0 21 21" fill="none" xmlns="http://www.w3.org/2000/svg">
<path d="M10.5 21C8.59961 21 6.84277 20.5317 5.22949 19.5952C3.61621 18.6587 2.34131 17.3838 1.40479 15.7705C0.468262 14.1572 0 12.4004 0 10.5C0 8.59961 0.468262 6.84277 1.40479 5.22949C2.34131 3.61621 3.61621 2.34131 5.22949 1.40479C6.84277 0.468262 8.59961 0 10.5 0C12.4004 0 14.1572 0.468262 15.7705 1.40479C17.3838 2.34131 18.6587 3.61621 19.5952 5.22949C20.5317 6.84277 21 8.59961 21 10.5C21 12.4004 20.5317 14.1572 19.5952 15.7705C18.6587 17.3838 17.3838 18.6587 15.7705 19.5952C14.1572 20.5317 12.4004 21 10.5 21ZM16.8779 6.99316L15.9756 6.09082C15.8389 5.96777 15.6851 5.90625 15.5142 5.90625C15.3433 5.90625 15.1895 5.96777 15.0527 6.09082L8.85938 12.2842L5.92676 9.37207C5.80371 9.24902 5.65332 9.1875 5.47559 9.1875C5.29785 9.1875 5.14746 9.24902 5.02441 9.37207L4.12207 10.2744C3.99902 10.3975 3.9375 10.5479 3.9375 10.7256C3.9375 10.9033 3.99902 11.0605 4.12207 11.1973L7.23926 14.2939C7.25293 14.4443 7.30762 14.5674 7.40332 14.6631L8.30566 15.5654C8.45605 15.7158 8.64062 15.7705 8.85938 15.7295C9.07813 15.7705 9.2627 15.7158 9.41309 15.5654L10.3154 14.6631C10.3975 14.5674 10.4521 14.4443 10.4795 14.2939L16.8779 7.89551C17.001 7.77246 17.0625 7.62207 17.0625 7.44434C17.0625 7.2666 17.001 7.11621 16.8779 6.99316Z" fill="white"/>
</svg>
