<svg width="25" height="25" viewBox="0 0 25 25" fill="none" xmlns="http://www.w3.org/2000/svg">
<path d="M21.8644 5.36065V6.6997C21.8644 7.93163 20.8646 8.93144 19.6327 8.93144H16.9546C15.7227 8.93144 14.7229 7.93163 14.7229 6.6997V5.807C14.7229 5.56152 14.522 5.36065 14.2765 5.36065H9.81303V23.2146H23.2035V5.36065H21.8644V5.36065ZM16.0619 18.7511H14.2765V13.3949H16.0619V18.7511ZM18.74 18.7511H16.9546V15.1803H18.74V18.7511ZM19.6327 2.68256H14.2765C13.5401 2.68256 12.9375 3.28512 12.9375 4.02161V4.46796H14.2765C15.0175 4.46796 15.6156 5.07052 15.6156 5.807V6.6997C15.6156 7.44063 16.2181 8.03875 16.9546 8.03875H19.6327C20.3737 8.03875 20.9717 7.44063 20.9717 6.6997V4.02161C20.9717 3.28512 20.3737 2.68256 19.6327 2.68256ZM9.13013 1.90145C8.38917 0.928413 7.25992 0 5.66199 0C4.82732 0 3.85875 0.254422 2.75179 0.88823C-0.640454 2.8343 -0.171793 5.48118 0.408455 6.88716C0.457574 7.00321 0.55129 7.09249 0.67628 7.13711C0.81018 7.18176 0.957482 7.16836 1.08245 7.10142L2.34115 6.37831L2.97049 4.0707C3.00621 3.94574 3.09548 3.83859 3.21601 3.78503H3.22045V3.78059C3.34097 3.727 3.47934 3.73147 3.59986 3.7895L5.35847 4.64651L8.97389 2.57544C8.97836 2.57544 8.97836 2.57544 8.97836 2.57097C8.98282 2.57097 8.98729 2.57097 8.99176 2.56651C8.99176 2.56204 8.9962 2.56204 9.0096 2.55313C9.11226 2.48617 9.18815 2.37011 9.21047 2.24515C9.23278 2.12016 9.20153 1.99963 9.13013 1.90145ZM9.40686 3.89662C9.33096 3.76272 9.24616 3.63329 9.14797 3.50829L5.59949 5.5392C5.47006 5.61508 5.31382 5.61954 5.17992 5.55258L3.6936 4.8295L3.15351 6.79344C3.12226 6.90503 3.04639 7.00321 2.94371 7.06124L2.05102 7.57455C2.11351 7.71292 2.18494 7.84682 2.26081 7.98072C3.39006 9.92232 6.68859 10.1723 7.8982 9.48044C8.23296 9.28405 8.60344 8.89573 8.92033 8.40476V4.9143C8.92033 4.66882 9.12119 4.46796 9.36668 4.46796H9.65682C9.59432 4.26709 9.50951 4.07517 9.40686 3.89662ZM8.34008 10.2526C7.97854 10.4579 7.51435 10.5918 7.0055 10.6633C5.46113 11.5604 4.48362 13.5065 4.45684 15.7427C4.42113 18.7957 6.07709 21.7327 8.92033 23.7279V9.79736C8.7284 9.98035 8.53648 10.1411 8.34008 10.2526ZM24.0962 7.14605V23.661C24.0962 23.9109 23.8953 24.1073 23.6498 24.1073H9.81303V25H24.9889V7.14605H24.0962Z" fill="white"/>
</svg>
