<svg width="31" height="25" viewBox="0 0 31 25" fill="none" xmlns="http://www.w3.org/2000/svg">
<path d="M27.9 0H3.1C2.27783 0 1.48933 0.32924 0.907969 0.915291C0.326606 1.50134 0 2.2962 0 3.125V21.875C0 22.7038 0.326606 23.4987 0.907969 24.0847C1.48933 24.6708 2.27783 25 3.1 25H27.9C28.7222 25 29.5107 24.6708 30.092 24.0847C30.6734 23.4987 31 22.7038 31 21.875V3.125C31 2.2962 30.6734 1.50134 30.092 0.915291C29.5107 0.32924 28.7222 0 27.9 0ZM27.9 7.34375L15.5 15.6781L3.1 7.34375V3.58906L15.5 11.9219L27.9 3.58906V7.34375Z" fill="#EC6C54"/>
</svg>
