<svg width="25" height="21" viewBox="0 0 25 21" fill="none" xmlns="http://www.w3.org/2000/svg">
<path d="M3.26087 3V0H5.43478V3H8.69565V5H5.43478V8H3.26087V5H0V3H3.26087ZM6.52174 9V6H9.78261V3H17.3913L19.3804 5H22.8261C24.0217 5 25 5.9 25 7V19C25 20.1 24.0217 21 22.8261 21H5.43478C4.23913 21 3.26087 20.1 3.26087 19V9H6.52174ZM14.1304 18C17.1304 18 19.5652 15.76 19.5652 13C19.5652 10.24 17.1304 8 14.1304 8C11.1304 8 8.69565 10.24 8.69565 13C8.69565 15.76 11.1304 18 14.1304 18ZM10.6522 13C10.6522 14.77 12.2065 16.2 14.1304 16.2C16.0543 16.2 17.6087 14.77 17.6087 13C17.6087 11.23 16.0543 9.8 14.1304 9.8C12.2065 9.8 10.6522 11.23 10.6522 13Z" fill="white"/>
</svg>
