<svg width="25" height="25" viewBox="0 0 25 25" fill="none" xmlns="http://www.w3.org/2000/svg">
<path d="M22.3214 25H2.67857C1.96817 25 1.28686 24.7178 0.784535 24.2155C0.282206 23.7131 0 23.0318 0 22.3214L0 2.67857C0 1.96817 0.282206 1.28687 0.784535 0.784534C1.28686 0.282206 1.96817 0 2.67857 0H22.3214C23.0318 0 23.7131 0.282206 24.2155 0.784534C24.7178 1.28687 25 1.96817 25 2.67857V22.3214C25 23.0318 24.7178 23.7131 24.2155 24.2155C23.7131 24.7178 23.0318 25 22.3214 25ZM21.4068 7.84766L20.5698 4.22042C20.5272 4.03601 20.4235 3.87145 20.2754 3.75359C20.1273 3.63572 19.9437 3.57151 19.7545 3.57143C10.8259 3.57143 3.57143 10.8097 3.57143 19.7545C3.57807 19.9419 3.64471 20.1223 3.76154 20.2691C3.87837 20.4159 4.03922 20.5212 4.22042 20.5698L7.84766 21.4068C7.90953 21.4199 7.97249 21.4272 8.03571 21.4286C8.19758 21.4204 8.35431 21.3691 8.48963 21.2799C8.62495 21.1907 8.73393 21.0669 8.80525 20.9213L10.4794 17.0151C10.5204 16.9097 10.5432 16.7982 10.5469 16.6853C10.5332 16.4375 10.4231 16.2049 10.24 16.0374L8.12556 14.3075C9.4067 11.5921 11.5921 9.4067 14.3075 8.12556L16.0374 10.24C16.2049 10.4231 16.4375 10.5332 16.6853 10.5469C16.7982 10.5432 16.9098 10.5204 17.0151 10.4794L20.9213 8.80525C21.0669 8.73402 21.1908 8.62507 21.28 8.48973C21.3692 8.35439 21.4205 8.19761 21.4286 8.03572C21.4275 7.97247 21.4202 7.90948 21.4068 7.84766Z" fill="white"/>
</svg>
