<svg width="25" height="21" viewBox="0 0 25 21" fill="none" xmlns="http://www.w3.org/2000/svg">
<path d="M22.5 0H2.5C1.83696 0 1.20107 0.276562 0.732233 0.768845C0.263392 1.26113 0 1.92881 0 2.625V18.375C0 19.0712 0.263392 19.7389 0.732233 20.2312C1.20107 20.7234 1.83696 21 2.5 21H22.5C23.163 21 23.7989 20.7234 24.2678 20.2312C24.7366 19.7389 25 19.0712 25 18.375V2.625C25 1.92881 24.7366 1.26113 24.2678 0.768845C23.7989 0.276562 23.163 0 22.5 0ZM22.5 6.16875L12.5 13.1696L2.5 6.16875V3.01481L12.5 10.0144L22.5 3.01481V6.16875Z" fill="white"/>
</svg>
