<svg width="22" height="26" viewBox="0 0 22 26" fill="none" xmlns="http://www.w3.org/2000/svg">
<path d="M4.14673 13.9796H7.533C7.89209 13.9796 8.18324 13.6885 8.18324 13.3294C8.18324 12.9703 7.89209 12.6791 7.533 12.6791H4.14673C3.78763 12.6791 3.49648 12.9703 3.49648 13.3294C3.49648 13.6885 3.78763 13.9796 4.14673 13.9796Z" fill="white"/>
<path d="M4.14673 9.58534H9.87485C10.234 9.58534 10.5251 9.2942 10.5251 8.9351C10.5251 8.576 10.234 8.28485 9.87485 8.28485H4.14673C3.78763 8.28485 3.49648 8.576 3.49648 8.9351C3.49648 9.2942 3.78763 9.58534 4.14673 9.58534Z" fill="white"/>
<path d="M13.0065 14.4286H17.9616C18.3207 14.4286 18.6118 14.1375 18.6118 13.7784V8.83473C18.6118 8.47563 18.3207 8.18448 17.9616 8.18448H13.0065C12.6474 8.18448 12.3563 8.47563 12.3563 8.83473V13.7784C12.3563 14.1375 12.6474 14.4286 13.0065 14.4286ZM17.3114 13.1281H13.6568V9.48497H17.3114V13.1281Z" fill="white"/>
<path d="M1.51724 0H20.5911C21.368 0 22 0.632039 22 1.40887V4.98967C22 5.34876 21.7089 5.63991 21.3498 5.63991H0.75862C0.399522 5.63991 0.108374 5.34876 0.108374 4.98967V1.40887C0.108374 0.632039 0.740359 0 1.51724 0Z" fill="white"/>
<path d="M0.758622 8.50461C0.339647 8.50461 1.07288e-06 8.16496 1.07288e-06 7.74599C1.07288e-06 7.32701 0.339647 6.98737 0.758622 6.98737C1.1776 6.98737 1.51724 7.32701 1.51724 7.74599C1.51724 8.16496 1.1776 8.50461 0.758622 8.50461Z" fill="white"/>
<path d="M0.75862 9.5956C1.11772 9.5956 1.40887 9.88674 1.40887 10.2458V16.9198C1.40887 16.9796 1.45747 17.0282 1.51724 17.0282H6.66367C7.62587 15.6357 9.23491 14.7212 11.0542 14.7212C12.8735 14.7212 14.4825 15.6357 15.4447 17.0282H20.5911C20.6509 17.0282 20.6995 16.9796 20.6995 16.9198V7.69904C20.6995 7.33995 20.9907 7.0488 21.3498 7.0488C21.7089 7.0488 22 7.33995 22 7.69904V16.9198C22 17.6966 21.368 18.3287 20.5911 18.3287H16.101C16.2845 18.866 16.3842 19.4418 16.3842 20.0404C16.3842 22.9734 13.9931 25.3596 11.0542 25.3596C8.11524 25.3596 5.72417 22.9734 5.72417 20.0403C5.72417 19.4418 5.82382 18.866 6.00735 18.3286H1.51724C0.740359 18.3286 0.108374 17.6966 0.108374 16.9198V10.2458C0.108374 9.88674 0.399522 9.5956 0.75862 9.5956ZM9.29923 20.6906H10.4039V21.7912C10.4039 22.1503 10.6951 22.4415 11.0542 22.4415C11.4133 22.4415 11.7044 22.1503 11.7044 21.7912V20.6906H12.8091C13.1682 20.6906 13.4594 20.3994 13.4594 20.0403C13.4594 19.6812 13.1682 19.3901 12.8091 19.3901H11.7044V18.2894C11.7044 17.9303 11.4133 17.6392 11.0542 17.6392C10.6951 17.6392 10.4039 17.9303 10.4039 18.2894V19.3901H9.29923C8.94013 19.3901 8.64898 19.6812 8.64898 20.0403C8.64898 20.3994 8.94013 20.6906 9.29923 20.6906Z" fill="white"/>
</svg>
