<svg width="32" height="30" viewBox="0 0 32 30" fill="none" xmlns="http://www.w3.org/2000/svg">
<path d="M0 5.99078V24.0092C0 25.6682 0.669569 27.1429 1.74088 28.2949C2.81219 29.4009 4.19596 30 5.80293 30H14.552V26.2673H5.80293C4.5977 26.2673 3.66031 25.2535 3.66031 24.0092V5.99078C3.66031 4.74654 4.5977 3.7788 5.80293 3.7788H14.552V0H5.80293C4.19596 0 2.81219 0.645161 1.74088 1.75115C0.669569 2.90323 0 4.3318 0 5.99078ZM9.59715 11.4286V18.6175C9.59715 19.447 10.3114 20.1382 11.1148 20.1382H19.1943V25.8065C19.1943 26.3134 19.4621 26.7281 19.9085 26.9585C20.0871 27.0046 20.2656 27.0046 20.3549 27.0046C20.6674 27.0046 20.9352 26.9124 21.1584 26.682L31.6483 15.8525C32.1393 15.4378 32.0947 14.6083 31.6483 14.1475L21.1584 3.36406C20.5334 2.67281 19.1943 3.08756 19.1943 4.19355V9.90783H11.1148C10.3114 9.90783 9.59715 10.5991 9.59715 11.4286Z" fill="#EC6C54"/>
</svg>
