<svg width="31" height="34" viewBox="0 0 31 34" fill="none" xmlns="http://www.w3.org/2000/svg">
<path d="M12.1136 2.12457C12.3669 1.49684 12.8014 0.959268 13.3613 0.580745C13.9212 0.202222 14.5811 0 15.2564 0C15.9317 0 16.5916 0.202222 17.1515 0.580745C17.7115 0.959268 18.1459 1.49684 18.3992 2.12457C20.9059 2.81586 23.1169 4.31318 24.6928 6.38659C26.2687 8.45999 27.1222 10.9948 27.1223 13.6018V21.5858L30.2278 26.2569C30.3981 26.5129 30.4959 26.8105 30.5108 27.1179C30.5257 27.4252 30.4571 27.7309 30.3123 28.0022C30.1676 28.2736 29.952 28.5004 29.6888 28.6586C29.4255 28.8167 29.1243 28.9002 28.8174 28.9002H21.13C20.9259 30.3163 20.2199 31.6113 19.1411 32.5479C18.0624 33.4845 16.6833 34 15.2564 34C13.8295 34 12.4504 33.4845 11.3717 32.5479C10.293 31.6113 9.58689 30.3163 9.38279 28.9002H1.69538C1.38849 28.9002 1.08735 28.8167 0.824071 28.6586C0.560797 28.5004 0.345273 28.2736 0.200493 28.0022C0.0557121 27.7309 -0.0128927 27.4252 0.00199661 27.1179C0.0168859 26.8105 0.114711 26.5129 0.285035 26.2569L3.39051 21.5858V13.6018C3.39051 8.12154 7.08589 3.50482 12.1136 2.12457ZM12.8595 28.9002C13.0346 29.3976 13.3592 29.8284 13.7886 30.133C14.2181 30.4377 14.7312 30.6014 15.2573 30.6014C15.7833 30.6014 16.2964 30.4377 16.7259 30.133C17.1553 29.8284 17.4799 29.3976 17.655 28.9002H12.8578H12.8595ZM15.2564 5.10265C13.0085 5.10265 10.8527 5.99809 9.26323 7.59199C7.67374 9.18588 6.78077 11.3477 6.78077 13.6018V22.1009C6.78084 22.4366 6.68175 22.7649 6.49599 23.0443L4.86358 25.5005H25.6475L24.0151 23.0443C23.83 22.7647 23.7315 22.4365 23.7321 22.1009V13.6018C23.7321 11.3477 22.8391 9.18588 21.2496 7.59199C19.6601 5.99809 17.5043 5.10265 15.2564 5.10265Z" fill="#EC6C54"/>
</svg>
