<svg width="25" height="25" viewBox="0 0 25 25" fill="none" xmlns="http://www.w3.org/2000/svg">
<path d="M6.81469 2.42232L5.05143 2.28271C4.89353 2.25479 4.76194 2.17102 4.68299 2.00348L3.99873 0.27225C3.84083 -0.0907499 3.3408 -0.0907499 3.20921 0.27225L2.52496 2.00348C2.47233 2.17102 2.31442 2.28271 2.15652 2.28271L0.393254 2.42232C-0.00150699 2.45025 -0.133094 2.95286 0.156397 3.23209L1.49858 4.46071C1.63017 4.5724 1.68281 4.73994 1.63017 4.90747L1.20909 6.7504C1.13014 7.14132 1.5249 7.44847 1.86703 7.25301L3.39343 6.2757C3.52502 6.19193 3.70924 6.19193 3.84083 6.2757L5.36724 7.25301C5.68305 7.47639 6.10412 7.14132 6.02517 6.7504L5.60409 4.90747C5.57778 4.73994 5.63041 4.5724 5.73568 4.46071L7.07787 3.23209C7.36736 2.95286 7.20945 2.45025 6.81469 2.42232Z" fill="white"/>
<path d="M10.4465 5.74515H23.6578C24.3947 5.74515 25 5.10292 25 4.32108C25 3.53923 24.3947 2.897 23.6578 2.897H10.4465C9.70961 2.897 9.10431 3.53923 9.10431 4.32108C9.10431 5.10292 9.70961 5.74515 10.4465 5.74515Z" fill="white"/>
<path d="M6.81469 11.246L5.05143 11.1064C4.89353 11.1064 4.76194 10.9947 4.68299 10.8271L3.99873 9.09592C3.84083 8.73292 3.3408 8.73292 3.20921 9.09592L2.52496 10.8271C2.47233 10.9947 2.31442 11.1064 2.15652 11.1064L0.393254 11.246C-0.00150699 11.2739 -0.133094 11.7765 0.156397 12.0558L1.49858 13.2844C1.63017 13.3961 1.68281 13.5636 1.63017 13.7311L1.20909 15.5741C1.13014 15.965 1.5249 16.2721 1.86703 16.0767L3.39343 15.0994C3.52502 15.0156 3.70924 15.0156 3.84083 15.0994L5.36724 16.0767C5.68305 16.3001 6.10412 15.965 6.02517 15.5741L5.60409 13.7311C5.57778 13.5636 5.63041 13.3961 5.73568 13.2844L7.07787 12.0558C7.36736 11.8045 7.20945 11.3018 6.81469 11.246Z" fill="white"/>
<path d="M23.6578 11.7486H10.4465C9.70961 11.7486 9.10431 12.3909 9.10431 13.1727C9.10431 13.9545 9.70961 14.5968 10.4465 14.5968H23.6578C24.3947 14.5968 25 13.9545 25 13.1727C25 12.3909 24.3947 11.7486 23.6578 11.7486Z" fill="white"/>
<path d="M6.81469 20.0976L5.05143 19.958C4.89353 19.958 4.76194 19.8463 4.68299 19.6788L3.99873 17.9475C3.84083 17.5845 3.3408 17.5845 3.20921 17.9475L2.52496 19.6788C2.47233 19.8463 2.31442 19.958 2.15652 19.958L0.393254 20.0976C-0.00150699 20.1255 -0.133094 20.6282 0.156397 20.9074L1.49858 22.136C1.63017 22.2477 1.68281 22.4152 1.63017 22.5828L1.20909 24.4257C1.13014 24.8166 1.5249 25.1238 1.86703 24.9283L3.39343 23.951C3.52502 23.8672 3.70924 23.8672 3.84083 23.951L5.36724 24.9283C5.68305 25.1517 6.10412 24.8166 6.02517 24.4257L5.60409 22.5828C5.57778 22.4152 5.63041 22.2477 5.73568 22.136L7.07787 20.9074C7.36736 20.6282 7.20945 20.1255 6.81469 20.0976Z" fill="white"/>
<path d="M23.6578 20.6002H10.4465C9.70961 20.6002 9.10431 21.2424 9.10431 22.0243C9.10431 22.8061 9.70961 23.4484 10.4465 23.4484H23.6578C24.3947 23.4484 25 22.8061 25 22.0243C25 21.2145 24.3947 20.6002 23.6578 20.6002Z" fill="white"/>
</svg>
