<svg viewBox="0 0 35 25" fill="none" xmlns="http://www.w3.org/2000/svg">
<path d="M25.4873 12.5466C24.8598 12.5466 24.2522 12.6935 23.7019 12.9722C24.6481 13.8576 25.2432 15.1135 25.2432 16.5084C25.2432 17.9019 24.6494 19.1561 23.7054 20.0415C24.2557 20.3197 24.8615 20.4702 25.4873 20.4702C27.6717 20.4702 29.4486 18.6928 29.4486 16.5084C29.4486 14.324 27.6712 12.5466 25.4873 12.5466Z" fill="white"/>
<path d="M7.1114 17.9889H3.0946V22.0061H7.1114V17.9889Z" fill="white"/>
<path d="M0 25H31.9783V6.4364H0V25ZM7.999 22.4499C7.999 22.6954 7.80018 22.8937 7.5552 22.8937H2.65081C2.40584 22.8937 2.20701 22.6954 2.20701 22.4499V17.5451C2.20701 17.2997 2.40584 17.1013 2.65081 17.1013H7.5552C7.80018 17.1013 7.999 17.2997 7.999 17.5451V22.4499ZM25.4873 21.3578C24.5797 21.3578 23.7032 21.1048 22.9377 20.6295C22.1974 21.0879 21.328 21.3578 20.3952 21.3578C17.7213 21.3578 15.5458 19.1827 15.5458 16.5084C15.5458 13.835 17.7213 11.6594 20.3952 11.6594C21.3276 11.6594 22.1961 11.9284 22.9359 12.3864C23.7019 11.9111 24.5775 11.6594 25.4877 11.6594C28.1612 11.6594 30.3367 13.835 30.3367 16.5084C30.3358 19.1827 28.1607 21.3578 25.4873 21.3578ZM1.71172 8.33096H30.3775C30.6229 8.33096 30.8213 8.52979 30.8213 8.77476C30.8213 9.01974 30.6229 9.21856 30.3775 9.21856H1.71172C1.46675 9.21856 1.26793 9.01974 1.26793 8.77476C1.26793 8.52979 1.46675 8.33096 1.71172 8.33096ZM1.71172 11.0661H14.3453C14.5903 11.0661 14.7891 11.2649 14.7891 11.5099C14.7891 11.7549 14.5903 11.9537 14.3453 11.9537H1.71172C1.46675 11.9537 1.26793 11.7549 1.26793 11.5099C1.26793 11.2649 1.46675 11.0661 1.71172 11.0661ZM1.71172 13.471H10.7621C11.0071 13.471 11.2059 13.6694 11.2059 13.9148C11.2059 14.1603 11.0071 14.3586 10.7621 14.3586H1.71172C1.46675 14.3586 1.26793 14.1603 1.26793 13.9148C1.26793 13.6694 1.46675 13.471 1.71172 13.471Z" fill="white"/>
<path d="M20.3947 12.5466C18.2104 12.5466 16.433 14.324 16.433 16.5084C16.433 18.6928 18.2104 20.4702 20.3947 20.4702C22.5787 20.4702 24.3556 18.6928 24.3556 16.5084C24.3556 14.324 22.5787 12.5466 20.3947 12.5466Z" fill="white"/>
<path d="M3.59966 1.94161H32.4221C32.6675 1.94161 32.8659 2.14044 32.8659 2.38541V19.3416H34.8071V0H3.59966V1.94161Z" fill="white"/>
<path d="M31.9783 2.82922H0V5.54881H31.9783V2.82922Z" fill="white"/>
</svg>
