<svg viewBox="0 0 22 22" fill="none" xmlns="http://www.w3.org/2000/svg">
<path fill-rule="evenodd" clip-rule="evenodd" d="M4 0C2.93913 0 1.92172 0.421427 1.17157 1.17157C0.421427 1.92172 0 2.93913 0 4V18C0 19.0609 0.421427 20.0783 1.17157 20.8284C1.92172 21.5786 2.93913 22 4 22H18C19.0609 22 20.0783 21.5786 20.8284 20.8284C21.5786 20.0783 22 19.0609 22 18V4C22 2.93913 21.5786 1.92172 20.8284 1.17157C20.0783 0.421427 19.0609 0 18 0H4ZM5.707 4.293C5.5184 4.11084 5.2658 4.01005 5.0036 4.01233C4.7414 4.0146 4.49059 4.11977 4.30518 4.30518C4.11977 4.49059 4.0146 4.7414 4.01233 5.0036C4.01005 5.2658 4.11084 5.5184 4.293 5.707L9.586 11L4.293 16.293C4.19749 16.3852 4.12131 16.4956 4.0689 16.6176C4.01649 16.7396 3.9889 16.8708 3.98775 17.0036C3.9866 17.1364 4.0119 17.2681 4.06218 17.391C4.11246 17.5138 4.18671 17.6255 4.2806 17.7194C4.3745 17.8133 4.48615 17.8875 4.60905 17.9378C4.73194 17.9881 4.86362 18.0134 4.9964 18.0123C5.12918 18.0111 5.2604 17.9835 5.3824 17.9311C5.50441 17.8787 5.61475 17.8025 5.707 17.707L11 12.414L16.293 17.707C16.4816 17.8892 16.7342 17.99 16.9964 17.9877C17.2586 17.9854 17.5094 17.8802 17.6948 17.6948C17.8802 17.5094 17.9854 17.2586 17.9877 16.9964C17.99 16.7342 17.8892 16.4816 17.707 16.293L12.414 11L17.707 5.707C17.8892 5.5184 17.99 5.2658 17.9877 5.0036C17.9854 4.7414 17.8802 4.49059 17.6948 4.30518C17.5094 4.11977 17.2586 4.0146 16.9964 4.01233C16.7342 4.01005 16.4816 4.11084 16.293 4.293L11 9.586L5.707 4.293Z" fill="#FF8066"/>
</svg>
