<svg viewBox="0 0 32 20" fill="none" xmlns="http://www.w3.org/2000/svg">
<path d="M30.6213 0H1.36384C1.10721 0.000962727 0.856136 0.0673322 0.63887 0.191671L16.0038 12.8316L31.3463 0.191671C31.129 0.0673322 30.8779 0.000962727 30.6213 0Z" fill="#FF8066"/>
<path d="M16.4665 13.3553L21.3446 9.34815L27.105 15.3342C27.1722 15.3945 27.258 15.4294 27.3523 15.4319C27.4466 15.4345 27.5398 15.4045 27.6108 15.348C27.6818 15.2915 27.7246 15.2127 27.7345 15.1273C27.7443 15.0419 27.718 14.9564 27.6614 14.8878L21.8841 8.89375L31.8539 0.693115C31.9483 0.865731 31.9998 1.05588 32 1.24871V18.7028C32 19.0337 31.8521 19.3511 31.5954 19.5853C31.3386 19.8196 30.9923 19.9516 30.6287 19.9523H1.36565C1.00212 19.9516 0.655777 19.8196 0.399017 19.5853C0.142256 19.3511 4.02035e-05 19.0337 0 18.7028V1.24871C0.000225249 1.05588 0.0460946 0.865731 0.140499 0.693115L10.1103 8.89375L4.33298 14.8878C4.26795 14.9558 4.23617 15.0446 4.24306 15.1346C4.24995 15.2246 4.29192 15.3084 4.3667 15.3676C4.44148 15.4268 4.53759 15.4566 4.63646 15.4503C4.73533 15.444 4.82992 15.4023 4.89498 15.3342L10.6554 9.34815L15.5279 13.3553C15.6592 13.4593 15.826 13.5165 16 13.5165C16.174 13.5165 16.3408 13.4593 16.4721 13.3553H16.4665Z" fill="#FF8066"/>
</svg>
