<svg viewBox="0 0 32 34" fill="none" xmlns="http://www.w3.org/2000/svg">
<path d="M21.12 16.8283C21.12 17.8892 20.8197 18.9262 20.2571 19.8083C19.6945 20.6904 18.8949 21.3779 17.9593 21.7838C17.0238 22.1898 15.9943 22.296 15.0011 22.0891C14.008 21.8821 13.0957 21.3713 12.3796 20.6211C11.6636 19.871 11.1759 18.9152 10.9784 17.8748C10.7808 16.8343 10.8822 15.7558 11.2697 14.7757C11.6573 13.7956 12.3135 12.9579 13.1555 12.3685C13.9975 11.7791 14.9874 11.4645 16 11.4645C17.3574 11.4662 18.6588 12.0318 19.6187 13.0373C20.5785 14.0429 21.1184 15.4063 21.12 16.8283ZM32 9.45308V24.2036C31.9973 26.6922 31.0524 29.0781 29.3727 30.8378C27.6929 32.5975 25.4155 33.5874 23.04 33.5902H8.96C6.58449 33.5874 4.30706 32.5975 2.62732 30.8378C0.947578 29.0781 0.00271022 26.6922 0 24.2036V9.45308C0.00271022 6.96445 0.947578 4.57856 2.62732 2.81884C4.30706 1.05911 6.58449 0.0692455 8.96 0.0664062H23.04C25.4155 0.0692455 27.6929 1.05911 29.3727 2.81884C31.0524 4.57856 31.9973 6.96445 32 9.45308ZM23.68 16.8283C23.68 15.237 23.2296 13.6815 22.3857 12.3584C21.5418 11.0352 20.3423 10.004 18.939 9.39505C17.5357 8.78609 15.9915 8.62675 14.5017 8.9372C13.0119 9.24765 11.6435 10.0139 10.5694 11.1391C9.49535 12.2644 8.7639 13.698 8.46757 15.2587C8.17124 16.8194 8.32332 18.4371 8.90461 19.9073C9.48589 21.3774 10.4703 22.634 11.7332 23.5181C12.9962 24.4022 14.481 24.874 16 24.874C18.0362 24.8716 19.9883 24.0232 21.4281 22.5149C22.8678 21.0065 23.6777 18.9614 23.68 16.8283ZM26.24 8.11213C26.24 7.7143 26.1274 7.32541 25.9164 6.99464C25.7054 6.66386 25.4056 6.40605 25.0548 6.25381C24.7039 6.10157 24.3179 6.06173 23.9454 6.13934C23.573 6.21696 23.2309 6.40853 22.9624 6.68983C22.6938 6.97113 22.511 7.32954 22.4369 7.71971C22.3628 8.10989 22.4008 8.51433 22.5462 8.88187C22.6915 9.24941 22.9376 9.56355 23.2533 9.78457C23.569 10.0056 23.9403 10.1236 24.32 10.1236C24.8292 10.1236 25.3176 9.91164 25.6776 9.53442C26.0377 9.15721 26.24 8.64559 26.24 8.11213Z" fill="#FF8066"/>
</svg>
