<svg viewBox="0 0 50 51" fill="none" xmlns="http://www.w3.org/2000/svg">
<path d="M0.000789615 5.43899C0.000274691 4.73115 0.13934 4.03015 0.410034 3.37606C0.680729 2.72197 1.07775 2.1276 1.5784 1.62694C2.07905 1.12629 2.67352 0.729141 3.32782 0.458217C3.98212 0.18729 4.68343 0.0478971 5.39166 0.0480001L44.6123 0.0480037C45.3202 0.0484157 46.0211 0.188182 46.675 0.459327C47.3289 0.730472 47.923 1.12769 48.4233 1.62828C48.9236 2.12888 49.3203 2.72307 49.5908 3.37691C49.8614 4.03075 50.0004 4.73145 50 5.439L50 44.6345C50.0002 46.0629 49.4327 47.4329 48.4223 48.4432C47.412 49.4534 46.0415 50.0212 44.6123 50.0216L5.39087 50.0216C4.68294 50.0218 3.98191 49.8826 3.32781 49.612C2.67372 49.3413 2.07939 48.9445 1.57877 48.4443C1.07815 47.944 0.681053 47.3501 0.410164 46.6964C0.139271 46.0427 -0.000102599 45.3421 4.57685e-07 44.6345L3.78773e-06 5.43899L0.000789615 5.43899Z" fill="#FF8066"/>
<path d="M28.0227 12.5385L42.4929 24.9874L28.1614 37.4936C26.1526 37.3463 24.5701 36.0076 24.5646 34.3711L24.5505 31.5903L11.4974 31.6608C10.4415 31.6664 9.42667 31.2529 8.67569 30.5112C7.92472 29.7694 7.49905 28.7601 7.49221 27.7049L7.46792 22.5481C7.4625 21.4934 7.87645 20.4798 8.61872 19.7302C9.36099 18.9805 10.3708 18.5563 11.426 18.5507L24.4808 18.4825L24.4666 15.7048C24.4557 14.0699 26.0131 12.7155 28.0211 12.54" fill="white"/>
</svg>
