<svg width="25" height="25" viewBox="0 0 25 25" fill="none" xmlns="http://www.w3.org/2000/svg">
<path d="M25 9.36279C25 11.0636 24.5809 12.6343 23.7427 14.0747C22.9045 15.5151 21.7692 16.6504 20.3369 17.4805C18.9046 18.3105 17.334 18.7256 15.625 18.7256C14.2904 18.7256 12.9964 18.4408 11.7432 17.8711L11.7432 19.5068L7.83691 19.5068L7.83691 21.0205L6.98242 21.8506L5.49316 21.8506L5.49316 23.3398L5.41992 23.4131L3.93066 23.4131L3.93066 24.8047C3.67025 24.9349 3.40169 24.9837 3.125 24.9512L3.125 25L0 25L-1.36598e-07 21.875L0.048828 21.875C-1.56519e-07 21.4193 0.12207 21.0368 0.415039 20.7275L7.37305 13.7939C6.64062 12.4105 6.27441 10.9375 6.27441 9.375C6.27441 7.66601 6.68945 6.09538 7.51953 4.66308C8.34961 3.23079 9.48486 2.09554 10.9253 1.25732C12.3657 0.419105 13.9364 -6.09178e-07 15.6372 -6.83524e-07C17.3381 -7.5787e-07 18.9046 0.419105 20.3369 1.25732C21.7692 2.09554 22.9045 3.23079 23.7427 4.66308C24.5809 6.09538 25 7.66194 25 9.36279ZM0.805664 22.6074L1.61133 23.4131L9.39941 15.625L8.59375 14.8193L0.805664 22.6074ZM14.0625 7.8125C14.0625 8.67513 14.3677 9.41162 14.978 10.022C15.5884 10.6323 16.3249 10.9375 17.1875 10.9375C18.0501 10.9375 18.7866 10.6323 19.397 10.022C20.0073 9.41162 20.3125 8.67513 20.3125 7.8125C20.3125 6.94987 20.0073 6.21338 19.397 5.60302C18.7866 4.99267 18.0501 4.6875 17.1875 4.6875C16.3249 4.6875 15.5884 4.99267 14.978 5.60302C14.3677 6.21338 14.0625 6.94987 14.0625 7.8125Z" fill="white"/>
</svg>
