<svg width="28" height="25" viewBox="0 0 28 25" fill="none" xmlns="http://www.w3.org/2000/svg">
<path d="M24.8107 0H3.17428C2.45699 0 1.76907 0.32924 1.26187 0.915291C0.75467 1.50134 0.469727 2.2962 0.469727 3.125V21.875C0.469727 22.7038 0.75467 23.4987 1.26187 24.0847C1.76907 24.6708 2.45699 25 3.17428 25H24.8107C25.528 25 26.2159 24.6708 26.7231 24.0847C27.2303 23.4987 27.5153 22.7038 27.5153 21.875V3.125C27.5153 2.2962 27.2303 1.50134 26.7231 0.915291C26.2159 0.32924 25.528 0 24.8107 0ZM24.8107 7.34375L13.9925 15.6781L3.17428 7.34375V3.58906L13.9925 11.9219L24.8107 3.58906V7.34375Z" fill="white"/>
</svg>
