<svg width="54" height="30" viewBox="0 0 54 30" fill="none" xmlns="http://www.w3.org/2000/svg">
<path d="M28.1867 10.0099C27.0195 6.58599 24.6889 3.71602 21.6277 1.93292C18.5666 0.149829 14.9829 -0.4252 11.5423 0.314628C6.00226 1.46406 1.50248 6.03681 0.341243 11.759C-0.126923 13.9507 -0.113202 16.2229 0.381393 18.4084C0.875989 20.5938 1.83886 22.6369 3.19912 24.3871C4.55938 26.1373 6.28239 27.5502 8.24127 28.5215C10.2002 29.4929 12.345 29.9982 14.518 30C17.5177 30.0001 20.4435 29.0387 22.8918 27.2484C25.3401 25.4582 27.1901 22.9273 28.1867 20.0049H38.7104V25.0025C38.7104 27.7511 40.8877 30 43.5488 30C46.21 30 48.3873 27.7511 48.3873 25.0025V20.0049C51.0485 20.0049 53.2258 17.756 53.2258 15.0074C53.2258 12.2587 51.0485 10.0099 48.3873 10.0099H28.1867ZM14.518 20.0049C11.8568 20.0049 9.67951 17.756 9.67951 15.0074C9.67951 12.2587 11.8568 10.0099 14.518 10.0099C17.1791 10.0099 19.3565 12.2587 19.3565 15.0074C19.3565 17.756 17.1791 20.0049 14.518 20.0049Z" fill="#FF8066"/>
</svg>
