<svg viewBox="0 0 32 29" fill="none" xmlns="http://www.w3.org/2000/svg">
<path d="M28.9114 27.4048C28.2713 28.2833 27.1595 28.7983 25.9804 28.7377C24.8013 28.6771 23.2852 28.5257 22.2408 28.2833C17.5917 27.1928 12.774 24.5877 8.6976 20.9223C4.62115 17.257 1.72382 12.9252 0.510989 8.74491C0.241472 7.80586 0.106713 6.473 0.00564402 5.41278C-0.0617353 4.38285 0.477316 3.38322 1.45432 2.80767L5.59814 0.323712C6.67621 -0.312423 8.12487 0.0207794 8.6976 1.05071L12.0666 6.8971C12.5382 7.71499 12.3024 8.74492 11.4938 9.32047L8.46176 11.4409C9.67459 13.4705 10.82 15.1063 13.0436 17.0752C15.0986 18.9231 16.8842 20.0136 19.2088 21.1344L21.6007 18.3778C22.2408 17.6508 23.3863 17.4084 24.2959 17.8628L30.8317 20.892C31.9771 21.407 32.3477 22.7096 31.6403 23.6789L28.9114 27.4048Z" fill="#FF8066"/>
</svg>
