<svg width="25" height="25" viewBox="0 0 25 25" fill="none" xmlns="http://www.w3.org/2000/svg">
<path d="M0.962777 0C0.432287 0 0 0.433898 0 0.966364V16.4282C0 16.9607 0.432287 17.3946 0.962777 17.3946H16.3672C16.8977 17.3946 17.33 16.9607 17.33 16.4282V0.966364C17.33 0.433898 16.8977 0 16.3672 0H0.962777ZM1.92555 1.93273H15.4044V13.5291H1.92555V1.93273ZM18.2928 2.80825V4.77094L20.0383 5.07341L18.2928 15.2202V16.4282C18.2928 17.4951 17.4292 18.3609 16.3672 18.3609H6.16755L18.3833 20.4753C18.6346 20.5191 18.893 20.461 19.1017 20.3136C19.3104 20.1663 19.4523 19.9419 19.4962 19.6897L22.0842 4.43948C22.1061 4.31446 22.1031 4.18635 22.0756 4.06247C22.0481 3.93858 21.9965 3.82136 21.9238 3.71751C21.8511 3.61366 21.7587 3.52522 21.6519 3.45725C21.5451 3.38928 21.426 3.34311 21.3015 3.32139L18.2928 2.80922V2.80825ZM8.665 3.80458C7.55684 3.80458 6.61909 4.56994 6.61909 6.00982C6.61909 6.95106 7.03694 7.89616 7.61172 8.48565C7.83701 9.07513 7.45382 9.29932 7.37102 9.33121C6.20991 9.75255 4.84373 10.5343 4.84373 11.2939V12.5328H12.4863V11.2949C12.4863 10.5121 11.1172 9.73515 9.89831 9.33121C9.84247 9.31285 9.49684 9.15727 9.71828 8.48565C10.2911 7.89616 10.7407 6.94623 10.7407 6.00982C10.7407 4.56994 9.77315 3.80458 8.665 3.80458ZM22.5348 7.64104L22.2045 9.54285L22.8958 9.6936L20.2482 20.9885L19.8573 20.8976C19.6426 21.11 19.3801 21.2675 19.0921 21.3568C18.8041 21.4461 18.4989 21.4646 18.2023 21.4108L4.87454 19.1157L4.60208 20.2647C4.54535 20.5166 4.58915 20.7809 4.7241 21.0009C4.85906 21.2209 5.07444 21.3791 5.32416 21.4417L20.3079 24.9757C20.5589 25.0326 20.8222 24.9887 21.0414 24.8532C21.2605 24.7177 21.4182 24.5016 21.4805 24.2509L24.9725 9.20945C25.0948 8.69148 24.7992 8.15515 24.2812 8.03145L22.5357 7.63911L22.5348 7.64104Z" fill="white"/>
</svg>
