<svg viewBox="0 0 50 51" fill="none" xmlns="http://www.w3.org/2000/svg">
<path d="M49.9992 44.6307C49.9997 45.3385 49.8607 46.0395 49.59 46.6936C49.3193 47.3477 48.9223 47.9421 48.4216 48.4428C47.921 48.9434 47.3265 49.3406 46.6722 49.6115C46.0179 49.8824 45.3166 50.0218 44.6083 50.0217H5.38774C4.6798 50.0213 3.97887 49.8815 3.32498 49.6104C2.67109 49.3392 2.07703 48.942 1.57673 48.4414C1.07644 47.9408 0.679693 47.3466 0.409157 46.6928C0.13862 46.0389 -0.00041092 45.3382 9.12257e-07 44.6307V5.43517C-0.000207001 4.00677 0.567286 2.63679 1.57766 1.62654C2.58804 0.616285 3.95854 0.0485114 5.38774 0.0480959H44.6091C45.3171 0.0478901 46.0181 0.187085 46.6722 0.457728C47.3263 0.728372 47.9206 1.12516 48.4212 1.62543C48.9219 2.12569 49.3189 2.71964 49.5898 3.37332C49.8607 4.02701 50.0001 4.72764 50 5.43517V44.6307H49.9992Z" fill="#FF8066"/>
<path d="M21.9773 37.5312L7.50708 25.0823L21.8386 12.5761C23.8474 12.7234 25.4299 14.0622 25.4354 15.6986L25.4495 18.4794L38.5026 18.4089C39.5585 18.4033 40.5733 18.8168 41.3243 19.5585C42.0753 20.3003 42.5009 21.3096 42.5078 22.3648L42.5321 27.5216C42.5375 28.5763 42.1236 29.5899 41.3813 30.3395C40.639 31.0892 39.6292 31.5134 38.574 31.519L25.5192 31.5872L25.5334 34.3649C25.5443 35.9998 23.9869 37.3542 21.9789 37.5297" fill="white"/>
</svg>
