<svg width="55" height="53" viewBox="0 0 55 53" fill="none" xmlns="http://www.w3.org/2000/svg">
<path d="M49.0338 34.3231C45.733 37.5821 41.4002 39.6219 36.7602 40.1012C32.1203 40.5806 27.4545 39.4703 23.5434 36.9563C23.1734 37.3951 22.7665 37.7609 22.3965 38.2729C21.8046 39.0043 21.0646 39.9918 20.2137 41.2352C19.3258 42.4787 18.7709 43.2833 18.4749 43.649C17.328 45.185 16.3661 46.3188 15.5892 47.0868C14.4053 48.2571 13.1845 49.2811 11.8896 50.1589C10.5947 51.0732 9.33685 51.768 8.04198 52.3166C6.74712 52.8286 5.52624 53.0846 4.34236 52.9749C3.15848 52.9018 2.15959 52.4629 1.34567 51.6583C0.531755 50.8537 0.0877979 49.8663 0.0138055 48.696C-0.0601869 47.5622 0.161792 46.3188 0.716736 45.0753C1.23468 43.7953 1.97461 42.5153 2.89951 41.2718C3.78742 39.9918 4.82331 38.7849 6.00719 37.6146C6.78411 36.8466 7.931 35.8957 9.44784 34.7985C9.92879 34.4328 10.7427 33.8842 11.8896 33.0796C13.0735 32.275 13.9984 31.6167 14.7753 31.0316C15.5152 30.4464 16.0702 29.971 16.6251 29.4224C14.6144 25.6264 13.8818 21.295 14.5339 17.0588C15.186 12.8227 17.1888 8.9028 20.2507 5.86985C28.2049 -1.95662 41.1166 -1.95662 49.0338 5.86985C50.9252 7.73731 52.4256 9.955 53.4493 12.3961C54.4731 14.8372 55 17.4539 55 20.0965C55 22.739 54.4731 25.3557 53.4493 27.7968C52.4256 30.2379 50.9252 32.4556 49.0338 34.3231V34.3231ZM25.5042 29.1664C27.9388 31.5556 31.2302 32.8964 34.6608 32.8964C38.0913 32.8964 41.3827 31.5556 43.8173 29.1664C45.0221 27.979 45.9779 26.5682 46.6301 25.015C47.2823 23.4617 47.618 21.7965 47.618 20.1147C47.618 18.433 47.2823 16.7678 46.6301 15.2145C45.9779 13.6613 45.0221 12.2505 43.8173 11.0631C42.6161 9.87217 41.189 8.92727 39.6178 8.28254C38.0465 7.63781 36.362 7.30593 34.6608 7.30593C32.9595 7.30593 31.275 7.63781 29.7037 8.28254C28.1325 8.92726 26.7054 9.87217 25.5042 11.0631C24.2995 12.2505 23.3436 13.6613 22.6914 15.2145C22.0392 16.7678 21.7035 18.433 21.7035 20.1147C21.7035 21.7965 22.0392 23.4617 22.6914 25.015C23.3436 26.5682 24.2995 27.979 25.5042 29.1664V29.1664Z" fill="#FF8066"/>
</svg>
